# xmcd
#
# Track frame offsets:
#	150
#	11955
#	21893
#	33485
#	44210
#	56665
#	66910
#	77753
#	90235
#	104850
#	122018
#	134485
#	144298
#	154955
#	166418
#	178703
#	189440
#	200213
#	213165
#	224040
#	235243
#	244768
#	256690
#	267060
#	278545
#
# Disc length: 3828
#
# Revision: 5
# Processed by: cddbd v1.5.1PL0 Copyright (c) Steve Scherf et al.
# Submitted via: dBpowerAMP V4.0
# Normalized: r3:TDELIM( - ),TSWAP
#
DISCID=780ef219
DTITLE=Country Giants - Multiple artists
DYEAR=1900
DGENRE=country
TTITLE0=Willie Nelson - Is there something on your mind
TTITLE1=Buck Owens - Rhythm 'n' Booze
TTITLE2=Johnny Lee - Candy Store
TTITLE3=Patsy Cline - Stop, look and listen
TTITLE4=Faron Young - Four in the morning
TTITLE5=faron Young - Hello walls
TTITLE6=donna Fargo - wishful thinking
TTITLE7=Kenny rogers - Reuben James
TTITLE8=Anne Murray - Both sides now
TTITLE9=Johnny Paycheck - Billy Jack Washburn
TTITLE10=Willie Nelson - The shelter of my arms
TTITLE11=Carl Perkins - This old house
TTITLE12=Cry not for me my love - Patsy Cline
TTITLE13=Dolly Parton - Letter to heaven
TTITLE14=Stonewall Jackson - Ol'Blue
TTITLE15=Waylon Jennings - Sally was a good old girl
TTITLE16=Patsy Cline - Honky tonk merry go round
TTITLE17=Frankie laine - Moonlight Gambler
TTITLE18=Faron Young - Wine me up
TTITLE19=Hank Locklin - Send me thepillow you dream on
TTITLE20=Willie Nelson - building heartaches
TTITLE21=Billie Jo spears - Ease the want in me
TTITLE22=Dave Dudle - Sad and lonely days
TTITLE23=Guy Mitchell - Heartaches by the number
TTITLE24=conway Twitty - Blue is the way I feel
EXTD=
EXTT0=
EXTT1=
EXTT2=
EXTT3=
EXTT4=
EXTT5=
EXTT6=
EXTT7=
EXTT8=
EXTT9=
EXTT10=
EXTT11=
EXTT12=
EXTT13=
EXTT14=
EXTT15=
EXTT16=
EXTT17=
EXTT18=
EXTT19=
EXTT20=
EXTT21=
EXTT22=
EXTT23=
EXTT24=
PLAYORDER=
